<?xml version="1.0" encoding="utf-8"?>
<svg viewBox="52.874 24.062 255.344 255.344" xmlns="http://www.w3.org/2000/svg">
  <ellipse style="fill: rgb(255, 255, 255); stroke: rgba(0, 0, 0, 0);" cx="180.546" cy="151.734" rx="127.672" ry="127.672" transform="matrix(0.9999999999999999, 0, 0, 0.9999999999999999, 0, 0)"/>
  <path d="M 180.486 271.27 C 246.846 271.27 300.971 217.285 300.971 150.635 C 300.971 83.985 246.846 30 180.486 30 C 114.125 30 60 84.192 60 150.635 C 60 217.078 114.125 271.27 180.486 271.27 Z M 180.486 47.026 C 237.514 47.026 283.966 93.536 283.966 150.635 C 283.966 207.734 237.514 254.244 180.486 254.244 C 123.457 254.244 77.005 207.734 77.005 150.635 C 77.005 93.536 123.457 47.026 180.486 47.026 Z" fill="#4A4A4A" id="path-1" transform="matrix(0.9999999999999999, 0, 0, 0.9999999999999999, 0, 0)"/>
</svg>