<?xml version="1.0" encoding="utf-8"?>
<svg viewBox="133.0836 81.1412 459.2235 603.1613" xmlns="http://www.w3.org/2000/svg">
  <rect x="237.348" y="97.843" width="340.227" height="478.597" style="stroke: rgba(255, 255, 255, 0); fill: rgb(255, 255, 255);"/>
  <g transform="matrix(1, 0, 0, 1, 151.4620971679688, 81.14115905761719)">
    <path class="st0" d="M398.31,0H113.691C90.197,0.007,71.162,19.034,71.155,42.536v426.936 c0.007,23.494,19.042,42.521,42.536,42.528H398.31c23.494-0.007,42.521-19.034,42.535-42.528V42.536 C440.831,19.034,421.804,0.007,398.31,0z M421.217,469.472c-0.015,6.357-2.556,12.019-6.715,16.192 c-4.166,4.159-9.836,6.7-16.192,6.708H113.691c-6.356-0.008-12.026-2.549-16.192-6.708c-4.166-4.173-6.707-9.836-6.714-16.192 V42.536c0.007-6.364,2.548-12.02,6.714-16.193c4.167-4.159,9.836-6.707,16.192-6.714H398.31c6.357,0.008,12.026,2.556,16.192,6.714 c4.159,4.173,6.7,9.828,6.715,16.193V469.472z"/>
    <rect x="113.691" y="422.033" class="st0" width="47.432" height="47.438"/>
    <rect x="208.562" y="422.033" class="st0" width="47.438" height="47.438"/>
    <rect x="303.432" y="422.033" class="st0" width="47.446" height="47.438"/>
    <rect x="113.691" y="327.155" class="st0" width="47.432" height="47.439"/>
    <rect x="208.562" y="327.155" class="st0" width="47.438" height="47.439"/>
    <rect x="303.432" y="327.155" class="st0" width="47.446" height="47.439"/>
    <rect x="161.123" y="374.594" class="st0" width="47.439" height="47.439"/>
    <rect x="256" y="374.594" class="st0" width="47.432" height="47.439"/>
    <rect x="350.878" y="374.594" class="st0" width="47.432" height="47.439"/>
    <rect x="113.691" y="232.284" class="st0" width="47.432" height="47.439"/>
    <rect x="208.562" y="232.284" class="st0" width="47.438" height="47.439"/>
    <rect x="303.432" y="232.284" class="st0" width="47.446" height="47.439"/>
    <rect x="161.123" y="279.723" class="st0" width="47.439" height="47.432"/>
    <rect x="256" y="279.723" class="st0" width="47.432" height="47.432"/>
    <rect x="350.878" y="279.723" class="st0" width="47.432" height="47.432"/>
    <rect x="113.691" y="137.407" class="st0" width="47.432" height="47.438"/>
    <rect x="208.562" y="137.407" class="st0" width="47.438" height="47.438"/>
    <rect x="303.432" y="137.407" class="st0" width="47.446" height="47.438"/>
    <rect x="161.123" y="184.845" class="st0" width="47.439" height="47.439"/>
    <rect x="256" y="184.845" class="st0" width="47.432" height="47.439"/>
    <rect x="350.878" y="184.845" class="st0" width="47.432" height="47.439"/>
    <rect x="113.691" y="42.536" class="st0" width="47.432" height="47.432"/>
    <rect x="208.562" y="42.536" class="st0" width="47.438" height="47.432"/>
    <rect x="303.432" y="42.536" class="st0" width="47.446" height="47.432"/>
    <rect x="161.123" y="89.968" class="st0" width="47.439" height="47.439"/>
    <rect x="256" y="89.968" class="st0" width="47.432" height="47.439"/>
    <rect x="350.878" y="89.968" class="st0" width="47.432" height="47.439"/>
  </g>
  <rect x="147.001" y="187.375" width="340.227" height="478.597" style="stroke: rgba(255, 255, 255, 0); fill: rgb(255, 255, 255);"/>
  <g id="SVGRepo_iconCarrier" transform="matrix(1, 0, 0, 1, 61.928627014160156, 172.302490234375)">
    <g>
      <path class="st0" d="M398.31,0H113.691C90.197,0.007,71.162,19.034,71.155,42.536v426.936 c0.007,23.494,19.042,42.521,42.536,42.528H398.31c23.494-0.007,42.521-19.034,42.535-42.528V42.536 C440.831,19.034,421.804,0.007,398.31,0z M421.217,469.472c-0.015,6.357-2.556,12.019-6.715,16.192 c-4.166,4.159-9.836,6.7-16.192,6.708H113.691c-6.356-0.008-12.026-2.549-16.192-6.708c-4.166-4.173-6.707-9.836-6.714-16.192 V42.536c0.007-6.364,2.548-12.02,6.714-16.193c4.167-4.159,9.836-6.707,16.192-6.714H398.31c6.357,0.008,12.026,2.556,16.192,6.714 c4.159,4.173,6.7,9.828,6.715,16.193V469.472z" style=""/>
      <rect x="113.691" y="422.033" class="st0" width="47.432" height="47.438" style=""/>
      <rect x="208.562" y="422.033" class="st0" width="47.438" height="47.438" style=""/>
      <rect x="303.432" y="422.033" class="st0" width="47.446" height="47.438" style=""/>
      <rect x="113.691" y="327.155" class="st0" width="47.432" height="47.439" style=""/>
      <rect x="208.562" y="327.155" class="st0" width="47.438" height="47.439" style=""/>
      <rect x="303.432" y="327.155" class="st0" width="47.446" height="47.439" style=""/>
      <rect x="161.123" y="374.594" class="st0" width="47.439" height="47.439" style=""/>
      <rect x="256" y="374.594" class="st0" width="47.432" height="47.439" style=""/>
      <rect x="350.878" y="374.594" class="st0" width="47.432" height="47.439" style=""/>
      <rect x="113.691" y="232.284" class="st0" width="47.432" height="47.439" style=""/>
      <rect x="208.562" y="232.284" class="st0" width="47.438" height="47.439" style=""/>
      <rect x="303.432" y="232.284" class="st0" width="47.446" height="47.439" style=""/>
      <rect x="161.123" y="279.723" class="st0" width="47.439" height="47.432" style=""/>
      <rect x="256" y="279.723" class="st0" width="47.432" height="47.432" style=""/>
      <rect x="350.878" y="279.723" class="st0" width="47.432" height="47.432" style=""/>
      <rect x="113.691" y="137.407" class="st0" width="47.432" height="47.438" style=""/>
      <rect x="208.562" y="137.407" class="st0" width="47.438" height="47.438" style=""/>
      <rect x="303.432" y="137.407" class="st0" width="47.446" height="47.438" style=""/>
      <rect x="161.123" y="184.845" class="st0" width="47.439" height="47.439" style=""/>
      <rect x="256" y="184.845" class="st0" width="47.432" height="47.439" style=""/>
      <rect x="350.878" y="184.845" class="st0" width="47.432" height="47.439" style=""/>
      <rect x="113.691" y="42.536" class="st0" width="47.432" height="47.432" style=""/>
      <rect x="208.562" y="42.536" class="st0" width="47.438" height="47.432" style=""/>
      <rect x="303.432" y="42.536" class="st0" width="47.446" height="47.432" style=""/>
      <rect x="161.123" y="89.968" class="st0" width="47.439" height="47.439" style=""/>
      <rect x="256" y="89.968" class="st0" width="47.432" height="47.439" style=""/>
      <rect x="350.878" y="89.968" class="st0" width="47.432" height="47.439" style=""/>
    </g>
  </g>
</svg>