<!DOCTYPE svg PUBLIC "-//W3C//DTD SVG 1.1//EN" "http://www.w3.org/Graphics/SVG/1.1/DTD/svg11.dtd">
<!-- Uploaded to: SVG Repo, www.svgrepo.com, Transformed by: SVG Repo Mixer Tools -->
<svg height="800px" width="800px" version="1.1" id="_x32_" xmlns="http://www.w3.org/2000/svg" xmlns:xlink="http://www.w3.org/1999/xlink" viewBox="-51.2 -51.2 614.40 614.40" xml:space="preserve" fill="#000000" stroke="#000000" stroke-width="0.00512" transform="rotate(0)matrix(1, 0, 0, 1, 0, 0)">
<g id="SVGRepo_bgCarrier" stroke-width="0" transform="translate(0,0), scale(1)"/>
<g id="SVGRepo_tracerCarrier" stroke-linecap="round" stroke-linejoin="round" stroke="#CCCCCC" stroke-width="3.072"/>
<g id="SVGRepo_iconCarrier"> <style type="text/css"> .st0{fill:#000000;} </style> <g> <path class="st0" d="M499.048,174.608l-104.262-46.414c-3.052-2.604-6.848-4.415-11.091-4.993l-0.172-0.043l-7.632-3.381 c-5.821-2.56-12.126-2.439-17.497-0.121l-80.858-11.391c-4.422-3.138-9.95-4.665-15.721-3.838l-5.82,0.828l-5.778-0.828 c-5.771-0.828-11.306,0.699-15.714,3.838l-80.866,11.391c-5.407-2.318-11.72-2.482-17.497,0.121l-7.632,3.381l-0.164,0.043 c-4.294,0.621-8.124,2.389-11.184,5.036L12.984,174.608C1.97,179.516-3.022,192.433,1.892,203.489l85.196,191.354 c4.95,11.013,17.825,15.964,28.881,11.056l83.012-36.97l57.056-8.003l57.021,8.003l83.012,36.97 c11.013,4.908,23.924-0.043,28.832-11.056l85.202-191.397C515.012,192.433,510.062,179.516,499.048,174.608z M285.911,120.269 l62.091,8.709c-0.37,0.621-0.699,1.234-0.991,1.898l-35.85,80.537c-2.561-5.778-4.501-11.02-5.158-14.529 c-0.128-0.657-0.292-0.992-0.584-1.027c-0.329-0.043-0.536,0.249-0.82,0.82c-1.242,2.475-3.588,5.778-6.434,9.408 c-2.768,3.431-5.984,7.14-9.323,10.728c-7.346,7.925-15.228,15.307-19.187,17.661l-0.371,0.449l0.25,0.585 c4.001,4.287,11.919,18.146,17.412,30.236l-25.13,56.486c-4.172,9.365-1.198,20.086,6.563,26.114 c1.362,1.07,2.888,1.983,4.536,2.725l4.536,2.018l-21.413-3.01l-12.375-1.733l-18.817-2.639l-8.374-1.198 c-6.105-0.863-10.314-6.477-9.486-12.54l6.926-49.388l11.056-78.469l11.185-79.588c0.328-2.397,1.405-4.501,2.974-6.106 c2.389-2.518,5.899-3.88,9.566-3.381l7.304,1.028l16.919,2.354L285.911,120.269z M111.596,396.12 c-5.613,2.475-12.176-0.042-14.694-5.649L11.708,199.117c-2.475-5.614,0.042-12.212,5.656-14.687l92.207-41.093 c-0.121,1.484-0.036,3.01,0.164,4.537l11.597,82.435c-5.114-2.311-9.572-4.544-12.254-6.898c-0.413-0.371-0.621-0.449-0.742-0.371 c-0.128,0.086-0.249,0.25-0.249,0.828c-0.079,8.502-7.425,24.423-10.522,37.462c-2.846,12.012,0.043,25.621,11.841,29.131 c7.019,2.104,15.307-1.362,19.309-7.547l10.15,72.406c1.57,11.056,11.178,19.016,22.112,18.81L111.596,396.12z M196.086,358.495 l-34.031,4.786c-6.07,0.863-11.676-3.388-12.546-9.451l-7.097-50.579l-2.839-20.015l-0.706-4.986l-6.027-42.912l-12.496-88.954 c-0.457-3.424,0.663-6.719,2.846-9.073c1.655-1.854,3.959-3.138,6.641-3.509l1.733-0.242l19.972-2.811l12.462-1.733l62.091-8.745 c-0.249,0.913-0.456,1.82-0.584,2.768l-10.393,74.054c-2.639-0.784-5.486-1.07-8.417-0.663 c-10.607,1.491-17.989,11.348-16.498,21.912c0.614,4.372,2.639,8.21,5.564,11.099c-1.07-0.042-2.104,0-3.174,0.164 c-10.564,1.483-17.989,11.305-16.505,21.912c1.491,10.6,11.348,17.989,21.905,16.499c2.768-0.371,5.328-1.363,7.554-2.761 l-9.159,65.188c-1.363,9.573,3.716,18.567,11.926,22.611c2.061,1.07,4.286,1.769,6.683,2.104l2.475,0.329L196.086,358.495z M500.325,199.117l-85.202,191.354c-2.511,5.607-9.116,8.124-14.722,5.649l-49.388-21.99l-35.109-15.635l-12.212-5.443 l-16.548-7.346l-9.858-4.415c-5.613-2.518-8.132-9.08-5.649-14.686l20.706-46.542l4.087-9.159l8.253-18.524l12.618-28.425 l39.53-88.747c0.82-1.855,2.104-3.381,3.674-4.458c3.088-2.268,7.261-2.846,11.013-1.148l8.866,3.959l8.417,3.709l13.66,6.106 l92.214,41.057C500.283,186.905,502.8,193.503,500.325,199.117z"/> <path class="st0" d="M395.45,241.529c1.934-12.09-9.244-23.596-22.447-20.179c-12.625,3.26-18.482,18.403-14.608,34.331 c3.552,14.686,12.055,31.149,12.34,40.059l0.328,0.578l0.663-0.164c6.804-5.734,24.716-10.435,38.04-17.618 c14.402-7.796,21.742-22.233,15.721-33.831C419.174,232.613,403.161,231.999,395.45,241.529z"/> <path class="st0" d="M367.396,182.775l0.121,0.293l0.286-0.086c3.096-2.596,11.22-4.701,17.247-7.961 c6.52-3.552,9.865-10.072,7.14-15.349c-2.889-5.443-10.15-5.735-13.617-1.406c0.87-5.485-4.209-10.728-10.186-9.158 c-5.742,1.491-8.382,8.338-6.605,15.557C363.395,171.305,367.226,178.774,367.396,182.775z"/> <path class="st0" d="M399.117,354.536c0.87-5.493-4.202-10.685-10.186-9.159c-5.692,1.484-8.332,8.331-6.598,15.55 c1.605,6.684,5.443,14.109,5.606,18.153l0.121,0.25l0.293-0.086c3.096-2.553,11.22-4.701,17.247-7.96 c6.555-3.509,9.858-10.064,7.14-15.307C409.887,350.491,402.626,350.199,399.117,354.536z"/> <path class="st0" d="M51.238,201.064c-4.458-2.433-10.778-4.401-13.189-6.534l-0.286-0.135l-0.099,0.313 c-0.022,3.21-2.79,9.223-3.966,14.166c-1.084,4.529,0.014,9.672,4.48,10.999c2.982,0.898,6.577-0.884,7.782-3.788 c1.248,3.31,2.176,6.619,2.39,9.644l5.613-2.504c-2.104-2.182-3.944-5.079-5.571-8.224c2.968,1.041,6.691-0.428,8.024-3.246 C58.414,207.548,55.332,203.289,51.238,201.064z"/> <path class="st0" d="M158.488,158.673c-0.45,0.064-0.892,0.164-1.32,0.293c0.87-1.534,1.256-3.36,0.984-5.243 c-0.642-4.551-4.858-7.746-9.416-7.104c-4.565,0.641-7.753,4.878-7.119,9.43c0.264,1.883,1.141,3.531,2.397,4.764 c-0.442-0.007-0.892,0.021-1.348,0.085c-4.558,0.642-7.746,4.865-7.104,9.423c0.642,4.565,4.872,7.746,9.43,7.111 c2.546-0.364,4.665-1.847,5.927-3.873c0.25,3.674,0.172,7.218-0.485,10.329l6.926-0.978c-1.484-2.803-2.54-6.192-3.317-9.793 c1.776,1.605,4.222,2.446,6.769,2.09c4.558-0.642,7.746-4.872,7.111-9.437C167.283,161.22,163.054,158.031,158.488,158.673z"/> <path class="st0" d="M263.299,132.303l-0.35,0.356c-2.154,4.315-11.741,14.309-15.036,16.27l-0.171,0.207l0.107,0.242 c2.632,2.804,9.08,15.05,9.972,19.78l0.242,0.449l0.356-0.364c2.162-4.308,11.741-14.302,15.036-16.27l0.171-0.2l-0.114-0.243 c-2.618-2.796-9.073-15.043-9.965-19.787L263.299,132.303z"/> </g> </g>
</svg>