<?xml version="1.0" encoding="utf-8"?>
<svg viewBox="61.1153 -3.8912 369.69 512" xmlns="http://www.w3.org/2000/svg">
  <path class="st0" d="M 410.054 -15.267 L 125.435 -15.267 C 101.941 -15.26 82.906 3.767 82.899 27.269 L 82.899 454.205 C 82.906 477.699 101.941 496.726 125.435 496.733 L 410.054 496.733 C 433.548 496.726 452.575 477.699 452.589 454.205 L 452.589 27.269 C 452.575 3.767 433.548 -15.26 410.054 -15.267 Z M 432.961 454.205 C 432.946 460.562 430.405 466.224 426.246 470.397 C 422.08 474.556 416.41 477.097 410.054 477.105 L 125.435 477.105 C 119.079 477.097 113.409 474.556 109.243 470.397 C 105.077 466.224 102.536 460.561 102.529 454.205 L 102.529 27.269 C 102.536 20.905 105.077 15.249 109.243 11.076 C 113.41 6.917 119.079 4.369 125.435 4.362 L 410.054 4.362 C 416.411 4.37 422.08 6.918 426.246 11.076 C 430.405 15.249 432.946 20.904 432.961 27.269 L 432.961 454.205 Z" transform="matrix(1, 0, 0, 1, -21.783694744110107, 11.37576055526739)"/>
</svg>