<?xml version="1.0" encoding="utf-8"?>
<svg viewBox="77.759 115.6675 1002.1944 291.002" xmlns="http://www.w3.org/2000/svg" xmlns:bx="https://boxy-svg.com">
  <defs>
    <style bx:fonts="Aclonica">@import url(https://fonts.googleapis.com/css2?family=Aclonica%3Aital%2Cwght%400%2C400&amp;display=swap);</style>
  </defs>
  <path id="path38" style="fill: rgb(214, 27, 70); fill-opacity: 1; fill-rule: nonzero; stroke: none;" d="M 989.91 330.013 C 999.287 326.839 1074.419 298.806 1079.739 211.652 C 1084.256 137.755 1016.454 106.754 965.288 122.646 C 918.718 137.108 883.033 173.694 874.107 219.138 C 865.181 264.562 887.814 292.467 887.814 292.467 C 887.814 292.467 878.193 255.283 902.325 211.025 C 941.194 139.695 1032.336 155.441 1018.364 219.618 C 1010.771 254.48 979.476 270.451 979.476 270.451 L 978.682 269.824 L 986.648 233.953 L 898.974 307.605 C 945.035 362.602 1019.089 361.289 1019.089 361.289 C 1005.793 351.971 992.703 335.255 989.626 331.218 L 989.91 330.013" transform="matrix(0.9999999999999999, 0, 0, 0.9999999999999999, 0, 0)"/>
  <text style="fill: rgb(214, 27, 70); font-family: Aclonica; font-size: 267.8px; white-space: pre;" x="77.759" y="336.669" transform="matrix(0.9999999999999999, 0, 0, 0.9999999999999999, 0, 0)">TRUC</text>
</svg>